<svg xmlns="http://www.w3.org/2000/svg" height="20" viewBox="0 -960 960 960" width="20"><path d="M480.225-144Q440-144 412-171.775q-28-27.774-28-68Q384-280 411.775-308q27.774-28 68-28Q520-336 548-308.225q28 27.774 28 68Q576-200 548.225-172q-27.774 28-68 28ZM238-386l-68-68q62-57 140.573-89.5 78.573-32.5 169.5-32.5T649.5-543.5Q728-511 790-454l-68 68q-48-44-109.824-69T480-480q-70.352 0-132.176 25Q286-430 238-386ZM68-555 0-624q94-90 217-141t263-51q140 0 263 51t217 141l-68 69q-81-77-186.318-121Q600.364-720 480-720q-120.364 0-225.682 44Q149-632 68-555Z"/></svg>